<?xml version="1.0" encoding="UTF-8" standalone="no"?>
<!DOCTYPE svg PUBLIC "-//W3C//DTD SVG 1.1//EN"
 "http://www.w3.org/Graphics/SVG/1.1/DTD/svg11.dtd">
<!-- Generated by graphviz version 5.0.0 (20220707.1540)
 -->
<!-- Title: dependencies Pages: 1 -->
<svg width="290pt" height="174pt"
 viewBox="0.00 0.00 290.00 173.80" xmlns="http://www.w3.org/2000/svg" xmlns:xlink="http://www.w3.org/1999/xlink">
<g id="graph0" class="graph" transform="scale(1 1) rotate(0) translate(4 169.8)">
<title>dependencies</title>
<polygon fill="white" stroke="transparent" points="-4,4 -4,-169.8 286,-169.8 286,4 -4,4"/>
<text text-anchor="middle" x="141" y="-8.2" font-family="sans-serif" font-size="14.00">dependencies</text>
<g id="clust1" class="cluster">
<title>cluster_AppModule</title>
<polygon fill="none" stroke="black" stroke-dasharray="1,5" points="8,-32.8 8,-157.8 274,-157.8 274,-32.8 8,-32.8"/>
</g>
<g id="clust6" class="cluster">
<title>cluster_AppModule_providers</title>
<polygon fill="none" stroke="black" points="136,-40.8 136,-92.8 266,-92.8 266,-40.8 136,-40.8"/>
</g>
<g id="clust3" class="cluster">
<title>cluster_AppModule_imports</title>
<polygon fill="none" stroke="black" points="16,-40.8 16,-92.8 128,-92.8 128,-40.8 16,-40.8"/>
</g>
<!-- LivrosModule -->
<g id="node1" class="node">
<title>LivrosModule</title>
<polygon fill="#8dd3c7" stroke="black" points="120.1,-84.8 117.1,-88.8 96.1,-88.8 93.1,-84.8 23.9,-84.8 23.9,-48.8 120.1,-48.8 120.1,-84.8"/>
<text text-anchor="middle" x="72" y="-62.6" font-family="Times,serif" font-size="14.00">LivrosModule</text>
</g>
<!-- AppModule -->
<g id="node2" class="node">
<title>AppModule</title>
<polygon fill="#8dd3c7" stroke="black" points="177.66,-149.8 174.66,-153.8 153.66,-153.8 150.66,-149.8 94.34,-149.8 94.34,-113.8 177.66,-113.8 177.66,-149.8"/>
<text text-anchor="middle" x="136" y="-127.6" font-family="Times,serif" font-size="14.00">AppModule</text>
</g>
<!-- LivrosModule&#45;&gt;AppModule -->
<g id="edge1" class="edge">
<title>LivrosModule&#45;&gt;AppModule</title>
<path fill="none" stroke="black" d="M107.11,-84.91C107.11,-84.91 107.11,-103.79 107.11,-103.79"/>
<polygon fill="black" stroke="black" points="103.61,-103.79 107.11,-113.79 110.61,-103.79 103.61,-103.79"/>
</g>
<!-- AppService -->
<g id="node3" class="node">
<title>AppService</title>
<ellipse fill="#fdb462" stroke="black" cx="201" cy="-66.8" rx="56.75" ry="18"/>
<text text-anchor="middle" x="201" y="-62.6" font-family="Times,serif" font-size="14.00">AppService</text>
</g>
<!-- AppService&#45;&gt;AppModule -->
<g id="edge2" class="edge">
<title>AppService&#45;&gt;AppModule</title>
<path fill="none" stroke="black" d="M161.1,-79.64C161.1,-79.64 161.1,-103.32 161.1,-103.32"/>
<polygon fill="black" stroke="black" points="157.6,-103.32 161.1,-113.32 164.6,-103.32 157.6,-103.32"/>
</g>
</g>
</svg>
